<svg xmlns="http://www.w3.org/2000/svg" xmlns:xlink="http://www.w3.org/1999/xlink" viewBox="0 0 92.16 87.84">
	<defs>
		<linearGradient id="Gradient2" x1="0" x2="1" y1="0" y2="1">
			<stop offset="0%" stop-color="#FA6C61" />
			<stop offset="100%" stop-color="#FCAD7D" />
		</linearGradient>
	</defs>
	<path fill="url(#Gradient2)" class="cls-1" d="M3.14,55.26c-1.17,0-2.12-.95-2.12-2.12s.95-2.12,2.12-2.12h1.77c-.43-2.45-.66-4.97-.66-7.55,0-2.03,.14-4.03,.41-5.98h-1.52c-1.17,0-2.12-.95-2.12-2.12s.95-2.12,2.12-2.12h2.33c1.89-7.76,5.89-14.69,11.36-20.16C24.61,5.32,35.35,.51,47.21,.51s22.6,4.81,30.38,12.58c7.77,7.77,12.58,18.52,12.58,30.38s-4.81,22.6-12.58,30.38c-7.77,7.77-18.52,12.58-30.38,12.58s-22.6-4.81-30.38-12.58c-5.1-5.1-8.92-11.47-10.95-18.59H3.14ZM29.54,12.86c.61-.35,1.4-.14,1.75,.47,.35,.61,.14,1.4-.47,1.75-.61,.35-1.4,.14-1.75-.47-.35-.61-.14-1.4,.47-1.75h0ZM11.86,43.47c0-.71,.57-1.28,1.28-1.28,.71,0,1.28,.57,1.28,1.28,0,.71-.57,1.28-1.28,1.28-.71,0-1.28-.57-1.28-1.28h0Zm17.67,30.61c-.61-.35-.82-1.14-.47-1.75,.35-.61,1.14-.82,1.75-.47,.61,.35,.82,1.14,.47,1.75-.35,.61-1.14,.82-1.75,.47h0Zm35.35,0c-.61,.35-1.4,.14-1.75-.47-.35-.61-.14-1.4,.47-1.75,.61-.35,1.4-.14,1.75,.47,.35,.61,.14,1.4-.47,1.75h0Zm17.67-30.61c0,.71-.57,1.28-1.28,1.28-.71,0-1.28-.57-1.28-1.28,0-.71,.57-1.28,1.28-1.28,.71,0,1.28,.57,1.28,1.28h0Zm-17.67-30.61c.61,.35,.82,1.14,.47,1.75-.35,.61-1.14,.82-1.75,.47-.61-.35-.82-1.14-.47-1.75,.35-.61,1.14-.82,1.75-.47h0Zm-15.56,13.12c4.02,.48,7.62,2.32,10.34,5.03,.59,.59,1.13,1.22,1.63,1.88l9.43-5.45c1.01-.58,2.3-.24,2.89,.77s.24,2.3-.77,2.89l-9.44,5.45c.91,2.12,1.41,4.46,1.41,6.92s-.5,4.79-1.41,6.92l9.44,5.45c1.01,.58,1.35,1.88,.77,2.89s-1.88,1.35-2.89,.77l-9.43-5.45c-.5,.67-1.05,1.29-1.63,1.88-2.72,2.72-6.32,4.55-10.34,5.03v10.9c0,1.17-.95,2.12-2.12,2.12s-2.12-.95-2.12-2.12v-10.9c-4.02-.48-7.62-2.32-10.34-5.03-.59-.59-1.13-1.22-1.63-1.88l-9.43,5.45c-1.01,.58-2.3,.24-2.89-.77-.58-1.01-.24-2.3,.77-2.89l9.44-5.45c-.91-2.12-1.41-4.46-1.41-6.92s.5-4.79,1.41-6.92l-9.44-5.45c-1.01-.58-1.35-1.88-.77-2.89,.58-1.01,1.88-1.35,2.89-.77l9.43,5.45c.5-.67,1.05-1.29,1.63-1.88,2.72-2.72,6.32-4.55,10.34-5.03V15.08c0-1.17,.95-2.12,2.12-2.12s2.12,.95,2.12,2.12v10.9h0Zm7.35,8.03c-2.42-2.42-5.77-3.92-9.46-3.92s-7.04,1.5-9.46,3.92c-2.42,2.42-3.92,5.77-3.92,9.46s1.5,7.04,3.92,9.46c2.42,2.42,5.77,3.92,9.46,3.92s7.04-1.5,9.46-3.92c2.42-2.42,3.92-5.77,3.92-9.46s-1.5-7.04-3.92-9.46h0ZM9.22,51.02h1.76c1.17,0,2.12,.95,2.12,2.12s-.95,2.12-2.12,2.12h-.67c1.9,5.95,5.2,11.28,9.52,15.6,7.01,7.01,16.69,11.34,27.38,11.34s20.38-4.33,27.38-11.34c7.01-7.01,11.34-16.69,11.34-27.38s-4.33-20.38-11.34-27.38c-7.01-7.01-16.69-11.34-27.38-11.34s-20.38,4.33-27.38,11.34c-4.69,4.69-8.18,10.58-9.98,17.17h1.13c1.17,0,2.12,.95,2.12,2.12s-.95,2.12-2.12,2.12h-2.04c-.3,1.95-.46,3.95-.46,5.98,0,2.58,.25,5.11,.74,7.55h0Z"/>
</svg>